# xmcd
#
# Track frame offsets:
#	150
#	14105
#	25265
#	41067
#	52150
#	63420
#	76625
#	91938
#	101367
#	115674
#	129429
#	146376
#	157993
#	172092
#	187791
#
# Disc length: 2757 seconds
#
# Revision: 0
# Processed by: cddbd v1.5.1PL2 Copyright (c) Steve Scherf et al.
# Submitted via: EasyCDDAExtractor 9.0.0.1
#
DISCID=bb0ac30f
DTITLE=Ouro Negro and Dorivan
DYEAR=2005
DGENRE=Country
TTITLE0=To querendo mais
TTITLE1=serenata pra lua
TTITLE2=so nois dois no brasil
TTITLE3=sem eira nem beira
TTITLE4=saudade com cerveja
TTITLE5=E no forro que a gente esquece
TTITLE6=tem amor que vai e vem
TTITLE7=toda cachaca do mundo
TTITLE8=eu sou seu programa
TTITLE9=esperando por ela
TTITLE10=lua
TTITLE11=o linguarudo
TTITLE12=o trem ta bom demais
TTITLE13=pantera
TTITLE14=pira gira
EXTD=
EXTT0=
EXTT1=
EXTT2=
EXTT3=
EXTT4=
EXTT5=
EXTT6=
EXTT7=
EXTT8=
EXTT9=
EXTT10=
EXTT11=
EXTT12=
EXTT13=
EXTT14=
PLAYORDER=
